<svg id="Layer_2" data-name="Layer 2" xmlns="http://www.w3.org/2000/svg" viewBox="0 0 205.51 298.18"><defs><style>.cls-1{fill:#be2528;}.cls-2{fill:#e96626;}.cls-3{fill:#ffc942;}.cls-4{fill:#f7f4b7;}</style></defs><path class="cls-1" d="M427.62,72.19s-27.33,30.64-15,49.65,27.46,27.11,26.05,39.44-11.05,31.55-11.05,31.55-6.2,28.11,16,28,21.13-36.34,11.62-49c0,0,63.73,72,37,136.09s-87.67,62.68-108.1,61.62-88.37-22-90.49-84.76c0,0-4.27-15.24,16.71-43.06,0,0-10,65.34,19.56,43.06S332.69,240,332.69,240s-14.44-14.11-7.05-41.56,21.13-29.56,21.13-29.56-9.15,27.46,14.44,26.05,10.56-36.26,10.56-36.26S356.36,107.93,427.62,72.19Z" transform="translate(-293.25 -72.19)"/><path class="cls-2" d="M368,112.37s46.38,26.34,50,55.08-15.63,29.64,6.7,50.6c0,0,21.44,7.18,13.06-21,0,0,20.34,9,20.8,38.32,0,0,.45,12.57-4,18.86s-18.86,33.53-3.89,34.13,22.75-1.2,18.26-28.14c0,0,51.39,53.09-32.43,102.18,0,0-80.43,35.52-121.74-43.81,0,0-27.54-46.7,29-116.75,0,0-12,35.64,14.67,39.22s2.69-41.91,2.69-41.91-7.18-14.37,19.16-39.22C380.26,160,396.17,140.21,368,112.37Z" transform="translate(-293.25 -72.19)"/><path class="cls-3" d="M415.51,193.49s-18.65,18-9.32,28.42,16.65,17.32,14.88,27.31-12.35,25.1.26,32.2,19.5-17.32,10.4-28.75c0,0,29.53,36.53,25.76,64.51s-22,49-49.53,52.52-67.28-11-72.61-36.31,9.32-39.31,9.32-39.31-5.55,20.21,8.44,21.32,4.22-20-1.11-31.53,8.89-34.65,14-33.09c0,0-6,17.54,10.22,13.77,0,0,8.22.66,5.11-17.55S378.43,210,415.51,193.49Z" transform="translate(-293.25 -72.19)"/><path class="cls-4" d="M424.25,347.24c.18-2.08-5.39-16.75-4-10s-3,7.27-3,7.27-9.37,1.64-4.57-5.63S415.82,327,415.82,327s-6.33-16.52-5.51-9-4.12,6.43-6.68,4.1-4-7.26-.93-13.82-14.77-18.75-14.77-18.75,9.73,10.31,2.23,15.82-5.16,13-5.16,13,6.1,9.26-1.17,11.6-4.68-12.3-4.68-12.3S367,328.5,367.78,345.72,381.37,368,381.37,368,421.43,380.3,424.25,347.24Z" transform="translate(-293.25 -72.19)"/></svg>